{
	"asset":{
		"generator":"Khronos glTF Blender I/O v4.0.44",
		"version":"2.0"
	},
	"scene":0,
	"scenes":[
		{
			"name":"Scene",
			"nodes":[
				5
			]
		}
	],
	"nodes":[
		{
			"mesh":0,
			"name":"Object_2"
		},
		{
			"mesh":1,
			"name":"Object_3"
		},
		{
			"mesh":2,
			"name":"Object_4"
		},
		{
			"mesh":3,
			"name":"Object_5"
		},
		{
			"children":[
				0,
				1,
				2,
				3
			],
			"name":"Pony_cartoon.obj.cleaner"
		},
		{
			"children":[
				4
			],
			"name":"Sketchfab_model",
			"rotation":[
				-0.70710688829422,
				0,
				0,
				0.7071066498756409
			],
			"scale":[
				0.1,
				0.1,
				0.1
			]
		}
	],
	"materials":[
		{
			"doubleSided":true,
			"emissiveFactor":[
				1,
				1,
				1
			],
			"emissiveTexture":{
				"index":0
			},
			"name":"Body_SG1",
			"normalTexture":{
				"index":1
			},
			"pbrMetallicRoughness":{
				"baseColorTexture":{
					"index":2
				},
				"metallicRoughnessTexture":{
					"index":3
				}
			}
		},
		{
			"alphaMode":"BLEND",
			"doubleSided":true,
			"name":"Ground_SG",
			"pbrMetallicRoughness":{
				"baseColorFactor":[
					0.007726100739091635,
					0.00757813872769475,
					0.00757813872769475,
					1
				],
				"baseColorTexture":{
					"index":4
				},
				"metallicFactor":0
			}
		},
		{
			"doubleSided":true,
			"name":"Interior_SG",
			"normalTexture":{
				"index":5
			},
			"pbrMetallicRoughness":{
				"baseColorTexture":{
					"index":6
				},
				"metallicRoughnessTexture":{
					"index":7
				}
			}
		},
		{
			"alphaMode":"BLEND",
			"doubleSided":true,
			"name":"Windows_SG",
			"normalTexture":{
				"index":8
			},
			"pbrMetallicRoughness":{
				"baseColorFactor":[
					1,
					1,
					1,
					0.7300000190734863
				],
				"baseColorTexture":{
					"index":9
				},
				"metallicFactor":0,
				"metallicRoughnessTexture":{
					"index":10
				}
			}
		}
	],
	"meshes":[
		{
			"name":"Object_0",
			"primitives":[
				{
					"attributes":{
						"POSITION":0,
						"NORMAL":1,
						"TEXCOORD_0":2
					},
					"indices":3,
					"material":0
				}
			]
		},
		{
			"name":"Object_1",
			"primitives":[
				{
					"attributes":{
						"POSITION":4,
						"NORMAL":5,
						"TEXCOORD_0":6
					},
					"indices":7,
					"material":1
				}
			]
		},
		{
			"name":"Object_2",
			"primitives":[
				{
					"attributes":{
						"POSITION":8,
						"NORMAL":9,
						"TEXCOORD_0":10
					},
					"indices":11,
					"material":2
				}
			]
		},
		{
			"name":"Object_3",
			"primitives":[
				{
					"attributes":{
						"POSITION":12,
						"NORMAL":13,
						"TEXCOORD_0":14
					},
					"indices":15,
					"material":3
				}
			]
		}
	],
	"textures":[
		{
			"sampler":0,
			"source":0
		},
		{
			"sampler":0,
			"source":1
		},
		{
			"sampler":0,
			"source":2
		},
		{
			"sampler":0,
			"source":3
		},
		{
			"sampler":0,
			"source":4
		},
		{
			"sampler":0,
			"source":5
		},
		{
			"sampler":0,
			"source":6
		},
		{
			"sampler":0,
			"source":7
		},
		{
			"sampler":0,
			"source":8
		},
		{
			"sampler":0,
			"source":9
		},
		{
			"sampler":0,
			"source":3
		}
	],
	"images":[
		{
			"mimeType":"image/jpeg",
			"name":"Body_SG1_emissive",
			"uri":"textures/Body_SG1_emissive.jpg"
		},
		{
			"mimeType":"image/jpeg",
			"name":"Body_SG1_normal",
			"uri":"textures/Body_SG1_normal.jpg"
		},
		{
			"mimeType":"image/jpeg",
			"name":"Body_SG1_baseColor",
			"uri":"textures/Body_SG1_baseColor.jpg"
		},
		{
			"mimeType":"image/png",
			"name":"Body_SG1_metallicRoughness",
			"uri":"textures/Body_SG1_metallicRoughness.png"
		},
		{
			"mimeType":"image/png",
			"name":"Ground_SG_baseColor",
			"uri":"textures/Ground_SG_baseColor.png"
		},
		{
			"mimeType":"image/jpeg",
			"name":"Interior_SG_normal",
			"uri":"textures/Interior_SG_normal.jpg"
		},
		{
			"mimeType":"image/jpeg",
			"name":"Interior_SG_baseColor",
			"uri":"textures/Interior_SG_baseColor.jpg"
		},
		{
			"mimeType":"image/png",
			"name":"Interior_SG_metallicRoughness",
			"uri":"textures/Interior_SG_metallicRoughness.png"
		},
		{
			"mimeType":"image/png",
			"name":"Windows_SG_normal",
			"uri":"textures/Windows_SG_normal.png"
		},
		{
			"mimeType":"image/png",
			"name":"Body_SG1_baseColor",
			"uri":"textures/Body_SG1_baseColor.png"
		}
	],
	"accessors":[
		{
			"bufferView":0,
			"componentType":5126,
			"count":3804,
			"max":[
				211.9060516357422,
				345.7454833984375,
				373.66162109375
			],
			"min":[
				-191.2209930419922,
				-319.2413635253906,
				-0.9747340083122253
			],
			"type":"VEC3"
		},
		{
			"bufferView":1,
			"componentType":5126,
			"count":3804,
			"type":"VEC3"
		},
		{
			"bufferView":2,
			"componentType":5126,
			"count":3804,
			"type":"VEC2"
		},
		{
			"bufferView":3,
			"componentType":5123,
			"count":17814,
			"type":"SCALAR"
		},
		{
			"bufferView":4,
			"componentType":5126,
			"count":4,
			"max":[
				419.05792236328125,
				480.63861083984375,
				0
			],
			"min":[
				-392.7550048828125,
				-480.63861083984375,
				0
			],
			"type":"VEC3"
		},
		{
			"bufferView":5,
			"componentType":5126,
			"count":4,
			"type":"VEC3"
		},
		{
			"bufferView":6,
			"componentType":5126,
			"count":4,
			"type":"VEC2"
		},
		{
			"bufferView":7,
			"componentType":5123,
			"count":6,
			"type":"SCALAR"
		},
		{
			"bufferView":8,
			"componentType":5126,
			"count":1518,
			"max":[
				152.65972900390625,
				246.80709838867188,
				250.7470703125
			],
			"min":[
				-152.65994262695312,
				-163.09568786621094,
				55.08576583862305
			],
			"type":"VEC3"
		},
		{
			"bufferView":9,
			"componentType":5126,
			"count":1518,
			"type":"VEC3"
		},
		{
			"bufferView":10,
			"componentType":5126,
			"count":1518,
			"type":"VEC2"
		},
		{
			"bufferView":11,
			"componentType":5123,
			"count":6744,
			"type":"SCALAR"
		},
		{
			"bufferView":12,
			"componentType":5126,
			"count":172,
			"max":[
				153.28758239746094,
				228.1385498046875,
				345.7152404785156
			],
			"min":[
				-153.28758239746094,
				-134.83203125,
				216.74916076660156
			],
			"type":"VEC3"
		},
		{
			"bufferView":13,
			"componentType":5126,
			"count":172,
			"type":"VEC3"
		},
		{
			"bufferView":14,
			"componentType":5126,
			"count":172,
			"type":"VEC2"
		},
		{
			"bufferView":15,
			"componentType":5123,
			"count":450,
			"type":"SCALAR"
		}
	],
	"bufferViews":[
		{
			"buffer":0,
			"byteLength":45648,
			"byteOffset":0,
			"target":34962
		},
		{
			"buffer":0,
			"byteLength":45648,
			"byteOffset":45648,
			"target":34962
		},
		{
			"buffer":0,
			"byteLength":30432,
			"byteOffset":91296,
			"target":34962
		},
		{
			"buffer":0,
			"byteLength":35628,
			"byteOffset":121728,
			"target":34963
		},
		{
			"buffer":0,
			"byteLength":48,
			"byteOffset":157356,
			"target":34962
		},
		{
			"buffer":0,
			"byteLength":48,
			"byteOffset":157404,
			"target":34962
		},
		{
			"buffer":0,
			"byteLength":32,
			"byteOffset":157452,
			"target":34962
		},
		{
			"buffer":0,
			"byteLength":12,
			"byteOffset":157484,
			"target":34963
		},
		{
			"buffer":0,
			"byteLength":18216,
			"byteOffset":157496,
			"target":34962
		},
		{
			"buffer":0,
			"byteLength":18216,
			"byteOffset":175712,
			"target":34962
		},
		{
			"buffer":0,
			"byteLength":12144,
			"byteOffset":193928,
			"target":34962
		},
		{
			"buffer":0,
			"byteLength":13488,
			"byteOffset":206072,
			"target":34963
		},
		{
			"buffer":0,
			"byteLength":2064,
			"byteOffset":219560,
			"target":34962
		},
		{
			"buffer":0,
			"byteLength":2064,
			"byteOffset":221624,
			"target":34962
		},
		{
			"buffer":0,
			"byteLength":1376,
			"byteOffset":223688,
			"target":34962
		},
		{
			"buffer":0,
			"byteLength":900,
			"byteOffset":225064,
			"target":34963
		}
	],
	"samplers":[
		{
			"magFilter":9729,
			"minFilter":9987
		}
	],
	"buffers":[
		{
			"byteLength":225964,
			"uri":"scene.bin"
		}
	]
}
